<?xml version="1.0" encoding="UTF-8" standalone="no"?>
<svg
   id="svg3033"
   viewBox="0 0 891.07791 744.58564"
   version="1.1"
   width="661.68323"
   height="552.9032"
   xmlns="http://www.w3.org/2000/svg"
   xmlns:svg="http://www.w3.org/2000/svg"
   xmlns:rdf="http://www.w3.org/1999/02/22-rdf-syntax-ns#"
   xmlns:cc="http://creativecommons.org/ns#"
   xmlns:dc="http://purl.org/dc/elements/1.1/">
  <defs
     id="defs3035" />
  <metadata
     id="metadata1">
    <rdf:RDF>
      <cc:Work>
        <dc:format>image/svg+xml</dc:format>
        <dc:type
           rdf:resource="http://purl.org/dc/dcmitype/StillImage" />
      </cc:Work>
    </rdf:RDF>
  </metadata>
  <g
     id="g1">
    <path
       style="font-size:192px;line-height:1.25;font-family:'Source Sans 3';-inkscape-font-specification:'Source Sans 3, ';font-variant-ligatures:none;fill:#ffffff"
       d="m 327.58736,529.4788 q -7.68,0 -14.016,-3.072 -6.144,-3.264 -9.792,-9.024 -3.648,-5.952 -3.648,-14.4 0,-15.744 13.824,-23.808 13.824,-8.064 43.776,-11.328 -0.192,-5.76 -1.92,-11.136 -1.536,-5.376 -5.76,-8.64 -4.224,-3.264 -11.712,-3.264 -8.064,0 -15.168,3.072 -7.104,2.88 -12.672,6.528 l -6.144,-10.752 q 4.224,-2.88 9.984,-5.568 5.76,-2.88 12.48,-4.608 6.72,-1.92 14.208,-1.92 11.328,0 18.432,4.8 7.296,4.608 10.56,13.248 3.456,8.64 3.456,20.352 v 57.216 h -13.056 l -1.344,-11.136 h -0.576 q -6.72,5.568 -14.4,9.6 -7.68,3.84 -16.512,3.84 z m 4.416,-13.056 q 6.912,0 12.864,-3.072 6.144,-3.072 12.864,-9.024 v -25.152 q -15.744,1.92 -24.96,4.992 -9.024,2.88 -13.056,7.296 -4.032,4.416 -4.032,10.56 0,7.68 4.8,11.136 4.8,3.264 11.52,3.264 z m 70.84794,10.752 v -93.312 h 13.056 l 1.344,13.44 h 0.576 q 6.72,-6.72 14.208,-11.136 7.488,-4.608 17.088,-4.608 14.784,0 21.504,9.408 6.912,9.216 6.912,27.072 v 59.136 h -15.744 v -57.024 q 0,-13.248 -4.224,-19.008 -4.032,-5.952 -13.44,-5.952 -7.104,0 -12.864,3.648 -5.568,3.648 -12.672,10.752 v 67.584 z m 142.08017,2.304 q -12.48,0 -22.464,-5.76 -9.984,-5.76 -15.744,-16.704 -5.76,-10.944 -5.76,-26.304 0,-15.744 6.144,-26.688 6.336,-10.944 16.512,-16.704 10.368,-5.76 22.272,-5.76 9.216,0 15.744,3.072 6.72,3.072 11.52,7.872 l -7.872,9.792 q -3.456,-3.456 -8.256,-5.376 -4.608,-2.112 -10.56,-2.112 -8.256,0 -14.976,4.608 -6.528,4.416 -10.368,12.48 -3.84,8.064 -3.84,18.816 0,10.56 3.648,18.624 3.648,8.064 10.176,12.672 6.528,4.416 15.168,4.416 6.528,0 12.096,-2.496 5.568,-2.496 9.6,-6.336 l 6.912,9.6 q -5.952,5.568 -13.44,9.024 -7.488,3.264 -16.512,3.264 z m 84.2586,0 q -12.48,0 -22.848,-5.76 -10.176,-5.952 -16.128,-16.704 -5.952,-10.944 -5.952,-26.496 0,-15.168 6.144,-26.112 6.144,-10.944 15.744,-16.896 9.6,-5.952 20.352,-5.952 11.904,0 20.16,5.568 8.448,5.376 12.672,15.168 4.224,9.792 4.224,23.04 0,2.496 -0.192,4.8 0,2.304 -0.576,4.608 h -67.2 v -12.48 h 53.76 q 0,-13.44 -5.952,-20.544 -5.76,-7.296 -16.704,-7.296 -6.336,0 -12.48,3.648 -6.144,3.456 -10.176,11.328 -3.84,7.872 -3.84,20.928 0,11.904 4.032,19.968 4.224,8.064 11.328,12.288 7.104,4.032 15.552,4.032 6.72,0 12.48,-1.92 5.952,-1.92 10.752,-5.184 l 5.76,10.368 q -6.144,4.224 -13.824,6.912 -7.488,2.688 -17.088,2.688 z m 74.11206,-0.576 q -5.952,0 -9.6,-2.304 -3.648,-2.496 -5.376,-7.104 -1.728,-4.8 -1.728,-11.52 v -117.504 h 15.744 v 118.656 q 0,3.84 1.344,5.376 1.344,1.344 3.264,1.344 0.768,0 1.344,0 0.768,-0.192 1.92,-0.384 l 2.304,11.904 q -1.728,0.576 -4.032,0.96 -2.112,0.576 -5.184,0.576 z m 68.54383,0.576 q -11.328,0 -21.312,-5.76 -9.792,-5.76 -15.936,-16.704 -5.952,-10.944 -5.952,-26.304 0,-15.744 5.952,-26.688 6.144,-10.944 15.936,-16.704 9.984,-5.76 21.312,-5.76 11.52,0 21.312,5.76 9.792,5.76 15.744,16.704 6.144,10.944 6.144,26.688 0,15.36 -6.144,26.304 -5.952,10.944 -15.744,16.704 -9.792,5.76 -21.312,5.76 z m 0,-13.056 q 8.064,0 14.208,-4.416 6.144,-4.608 9.408,-12.672 3.264,-8.064 3.264,-18.624 0,-10.752 -3.264,-18.816 -3.264,-8.256 -9.408,-12.672 -6.144,-4.608 -14.208,-4.608 -8.064,0 -14.208,4.608 -5.952,4.416 -9.408,12.672 -3.264,8.064 -3.264,18.816 0,10.56 3.264,18.624 3.456,8.064 9.408,12.672 6.144,4.416 14.208,4.416 z m 67.77597,10.752 v -93.312 h 13.056 l 1.344,16.896 h 0.576 q 4.608,-8.832 11.52,-14.016 6.912,-5.184 14.976,-5.184 3.072,0 5.376,0.384 2.304,0.384 4.608,1.536 l -3.456,13.44 q -2.112,-0.576 -4.032,-0.768 -1.728,-0.384 -4.608,-0.384 -5.952,0 -12.48,4.8 -6.336,4.8 -11.136,16.704 v 59.904 z"
       id="text1"
       aria-label="ancelor" />
    <g
       id="treble-clef-with-d"
       style="stroke:none">
      <path
         id="path11-2"
         d="m 179.53234,567.59905 6.7603,-1.0454 c 7.8919,-1.3481 33.643,-13.763 41.592,-18.478 21.812,-12.943 31.355,-31.636 39.852,-45.465 9.5416,-20.768 15.155,-34.946 15.155,-57.556 0,-57.185 -46.341,-103.54 -103.5,-103.54 -8.2386,0 -16.243,0.97722 -23.934,2.7962 l -6.6597,1.7974 c -42.22,13.057 -72.901,52.426 -72.901,98.946 0,52.649 62.945,77.202 61.239,64.706 -24.54,-10.587 -33.633,-22.486 -33.633,-50.911 0,-32.129 21.958,-59.115 51.673,-66.806 l 22.665,163.41 -33.09746,13.32049 c 7.6452,0 20.42086,0.68781 34.78886,-1.17469 m 4.932,-14.1551 -22.599,-162.78 c 3.4574,-0.5386 7.0163,-0.83047 10.632,-0.83047 38.1,0 68.994,30.905 68.994,69.017 -0.76275,30.67 -2.2237,76.336 -57.027,94.59 z"
         fill-rule="evenodd"
         stroke="#000000"
         clip-rule="evenodd"
         fill="url(#linearGradient3793)"
         style="display:inline;fill:#ffffff;fill-opacity:1;stroke:none" />
      <path
         id="path11"
         style="display:inline;fill:#ffffff;fill-opacity:0.333333;stroke:none;stroke-opacity:1"
         d="M 202.83593,0.02020027 C 172.66248,-1.0476097 137.80904,40.32682 116.75,98.47333 c -14.59399,33.11596 3.99821,96.3844 12.34961,122.35937 C 67.57167,279.81564 6.35999,322.11257 0,424.34247 0,504.35383 64.80696,569.20874 144.76562,569.27606 l 33.07422,-13.82227 c -5.09739,1.3804 -10.59665,2.54652 -16.55664,3.47852 -86.24891,-1.7287 -126.79102,-47.63177 -126.79102,-127.67969 0.002,-44.84595 52.80859,-96.57559 104.76954,-153.76953 l 0.006,-0.01 9.5293,68.63476 c 5.9e-4,-1.8e-4 0.001,1.8e-4 0.002,0 l 6.65821,-1.79687 -10.21485,-73.46485 c 38.68397,-43.00596 77.89647,-95.86959 91.06446,-144.31054 12.90998,-63.98894 6.73576,-107.20854 -27.50391,-125.72851973 -1.9645,-0.45606 -3.95523,-0.71592 -5.9668,-0.78711 z M 177.83984,555.45379 h 0.002 L 155.17578,392.04364 Z M 203.89453,31.92645 c 25.12397,9.85609 13.78371,80.10938 10.01172,80.10938 -11.83099,41.44595 -54.27598,74.39328 -77.50196,98.69726 -15.54798,-52.45895 -1.49268,-78.60129 7.63282,-98.69726 21.56497,-47.45196 40.53744,-64.7074 59.85742,-80.10938 z M 119.66211,360.4909 c -0.0431,0.0305 -0.0859,0.0612 -0.12891,0.0918 0.043,-0.0306 0.0858,-0.0613 0.12891,-0.0918 z M 96.5625,382.97137 c -0.0316,0.0421 -0.0622,0.0848 -0.0937,0.12696 0.0315,-0.0421 0.0622,-0.0849 0.0937,-0.12696 z m 75.93554,6.86133 c 2.38125,0 4.73357,0.12176 7.05274,0.35742 -2.31917,-0.23566 -4.67149,-0.35742 -7.05274,-0.35742 z m 7.05274,0.35742 c 2.31917,0.23566 4.60409,0.58518 6.84961,1.04492 -2.24552,-0.45974 -4.53044,-0.80926 -6.84961,-1.04492 z m 6.84961,1.04492 c 2.24552,0.45975 4.45102,1.02891 6.61133,1.70118 -2.16031,-0.67227 -4.36581,-1.24143 -6.61133,-1.70118 z m 6.61133,1.70118 c 2.1603,0.67226 4.27631,1.44905 6.33984,2.32226 -2.06353,-0.87321 -4.17954,-1.65 -6.33984,-2.32226 z m 6.33984,2.32226 c 2.06353,0.87321 4.07607,1.84367 6.03125,2.90625 -1.95518,-1.06258 -3.96772,-2.03304 -6.03125,-2.90625 z m 6.03125,2.90625 c 1.95518,1.06259 3.85223,2.21665 5.6875,3.45703 -1.83527,-1.24038 -3.73232,-2.39444 -5.6875,-3.45703 z m 5.6875,3.45703 c 1.83527,1.24039 3.60871,2.56604 5.3125,3.97266 -1.70379,-1.40662 -3.47723,-2.73227 -5.3125,-3.97266 z m 5.3125,3.97266 c 1.70379,1.40662 3.33769,2.8938 4.89844,4.45508 -1.56075,-1.56128 -3.19465,-3.04846 -4.89844,-4.45508 z m 4.89844,4.45508 c 1.56074,1.56128 3.04698,3.19797 4.45312,4.90234 -1.40614,-1.70437 -2.89238,-3.34106 -4.45312,-4.90234 z m 4.45312,4.90234 c 1.40614,1.70437 2.7327,3.47661 3.97266,5.3125 -1.23996,-1.83589 -2.56652,-3.60813 -3.97266,-5.3125 z m 3.97266,5.3125 c 1.23996,1.83589 2.39481,3.73557 3.45703,5.69141 -1.06222,-1.95584 -2.21707,-3.85552 -3.45703,-5.69141 z m 3.45703,5.69141 c 1.06221,1.95583 2.03139,3.96899 2.9043,6.0332 -0.87291,-2.06421 -1.84209,-4.07737 -2.9043,-6.0332 z m 2.9043,6.0332 c 0.8729,2.06421 1.64828,4.17883 2.32031,6.33984 -0.67203,-2.16101 -1.44741,-4.27563 -2.32031,-6.33984 z m 2.32031,6.33984 c 0.67203,2.16102 1.24158,4.36704 1.70117,6.61328 -0.45959,-2.24624 -1.02914,-4.45226 -1.70117,-6.61328 z m 1.70117,6.61328 c 0.45959,2.24625 0.80935,4.53361 1.04492,6.85352 -0.23557,-2.31991 -0.58533,-4.60727 -1.04492,-6.85352 z m 1.04492,6.85352 c 0.23558,2.31991 0.35742,4.67269 0.35742,7.05469 0,-2.382 -0.12184,-4.73478 -0.35742,-7.05469 z m -137.6289,7.13672 c 0.002,3.51991 0.1414,6.79068 0.43554,9.83203 -0.29405,-3.04043 -0.43316,-6.31334 -0.43554,-9.83203 z m 0.43554,9.83203 c 0.29657,3.0664 0.74728,5.90386 1.36524,8.54297 -0.61796,-2.63911 -1.06867,-5.47657 -1.36524,-8.54297 z m 1.36524,8.54297 c 0.61795,2.63911 1.40303,5.07836 2.36718,7.34961 -0.96415,-2.27125 -1.74923,-4.7105 -2.36718,-7.34961 z m 2.36718,7.34961 c 0.96394,2.27071 2.10858,4.37352 3.44336,6.33594 -1.33518,-1.96281 -2.4792,-4.0647 -3.44336,-6.33594 z m 133.39649,-13.68555 c -0.21998,4.21954 -0.55521,8.59157 -1.10547,13.03125 0.55026,-4.43968 0.88549,-8.81171 1.10547,-13.03125 z m -159.39453,0.62696 c 0.0152,0.0332 0.0297,0.0664 0.0449,0.0996 -0.0152,-0.0331 -0.0298,-0.0664 -0.0449,-0.0996 z m 29.4414,19.39648 c 1.33417,1.96131 2.86045,3.78343 4.58985,5.49609 -1.72985,-1.71287 -3.25537,-3.5345 -4.58985,-5.49609 z m 4.59375,5.5 c 1.73104,1.71381 3.66471,3.31756 5.81641,4.8418 -2.15092,-1.52368 -4.08585,-3.1287 -5.81641,-4.8418 z m 5.81641,4.8418 c 2.1517,1.52423 4.52,2.96724 7.11719,4.36132 -2.59719,-1.39408 -4.96549,-2.83709 -7.11719,-4.36132 z m 7.11719,4.36132 c 2.5862,1.3882 5.40258,2.72698 8.45508,4.04493 -3.05269,-1.31802 -5.86874,-2.65666 -8.45508,-4.04493 z m 104.59765,5.10352 c -0.91387,2.1915 -1.93249,4.35954 -3.07031,6.49219 1.13782,-2.13265 2.15644,-4.30069 3.07031,-6.49219 z m -3.07031,6.49219 c -1.13782,2.13264 -2.39377,4.23012 -3.78125,6.2832 1.38748,-2.05308 2.64343,-4.15056 3.78125,-6.2832 z m -3.78125,6.2832 c -1.38747,2.05308 -2.90552,4.06086 -4.56836,6.01367 1.66284,-1.95281 3.18089,-3.96059 4.56836,-6.01367 z m -4.56836,6.01367 c -1.66283,1.95282 -3.47165,3.8498 -5.43554,5.68164 1.96389,-1.83184 3.77271,-3.72882 5.43554,-5.68164 z m -5.43554,5.68164 c -1.9639,1.83185 -4.08434,3.59891 -6.375,5.28907 2.29066,-1.69016 4.4111,-3.45722 6.375,-5.28907 z m -6.375,5.28907 c -2.29067,1.69016 -4.7514,3.30425 -7.39454,4.83203 2.64314,-1.52778 5.10387,-3.14187 7.39454,-4.83203 z m -7.39454,4.83203 c -2.64314,1.52777 -5.46891,2.96977 -8.49023,4.31445 3.02132,-1.34468 5.84709,-2.78668 8.49023,-4.31445 z m -8.49023,4.31445 c -3.02132,1.34468 -6.23691,2.59155 -9.66211,3.73242 3.4252,-1.14087 6.64079,-2.38774 9.66211,-3.73242 z m -7.83399,16.8457 -6.75976,1.04493 6.75781,91.4121 c 0,0 2.59298,66.86189 -48.29297,75.92188 -20.19598,3.5928 -39.6743,7.75696 -34.07031,-5.61133 15.73898,-8.19669 34.07031,-21.26215 34.07031,-42.70312 0,-26.68298 -20.08563,-48.31641 -44.84961,-48.31641 -24.77397,0 -44.85937,21.63343 -44.85937,48.31641 l 0.004,-0.004 c 0,23.81098 27.14243,51.13243 48.19141,55.10742 0,0 22.50927,5.61404 41.03125,1.12305 3.3461,0.75146 59.49714,-9.54254 60.61914,-84.75586 z m -17.0332,2.08008 c -3.3901,0.25136 -6.62545,0.41056 -9.64062,0.50586 3.01462,-0.095 6.24047,-0.25308 9.64062,-0.50586 z" />
    </g>
  </g>
</svg>
